{
    "asset" : {
        "generator" : "Khronos glTF Blender I/O v1.5.17",
        "version" : "2.0"
    },
    "scene" : 0,
    "scenes" : [
        {
            "name" : "Scene",
            "nodes" : [
                0,
                1,
                2
            ]
        }
    ],
    "nodes" : [
        {
            "name" : "Lamp",
            "rotation" : [
                0.16907575726509094,
                0.7558803558349609,
                -0.27217137813568115,
                0.570947527885437
            ],
            "translation" : [
                12.444985389709473,
                5.903861999511719,
                -13.752971649169922
            ]
        },
        {
            "name" : "Camera",
            "rotation" : [
                0.483536034822464,
                0.33687159419059753,
                -0.20870360732078552,
                0.7804827094078064
            ],
            "translation" : [
                7.481131553649902,
                5.34366512298584,
                6.5076398849487305
            ]
        },
        {
            "mesh" : 0,
            "name" : "Cube.002",
            "rotation" : [
                0,
                0.7071068286895752,
                0,
                0.7071068286895752
            ],
            "scale" : [
                0.28418397903442383,
                0.8777956366539001,
                0.0306773129850626
            ],
            "translation" : [
                0.22217321395874023,
                0.9589727520942688,
                -0.27220389246940613
            ]
        }
    ],
    "materials" : [
        {
            "doubleSided" : true,
            "name" : "Material.002",
            "pbrMetallicRoughness" : {}
        }
    ],
    "meshes" : [
        {
            "name" : "Cube.002",
            "primitives" : [
                {
                    "attributes" : {
                        "POSITION" : 0,
                        "NORMAL" : 1,
                        "TEXCOORD_0" : 2
                    },
                    "indices" : 3,
                    "material" : 0
                }
            ]
        }
    ],
    "accessors" : [
        {
            "bufferView" : 0,
            "componentType" : 5126,
            "count" : 293,
            "max" : [
                8.150690078735352,
                1.0464478731155396,
                53.980308532714844
            ],
            "min" : [
                -8.150690078735352,
                -1.0464478731155396,
                -53.980308532714844
            ],
            "type" : "VEC3"
        },
        {
            "bufferView" : 1,
            "componentType" : 5126,
            "count" : 293,
            "type" : "VEC3"
        },
        {
            "bufferView" : 2,
            "componentType" : 5126,
            "count" : 293,
            "type" : "VEC2"
        },
        {
            "bufferView" : 3,
            "componentType" : 5123,
            "count" : 468,
            "type" : "SCALAR"
        }
    ],
    "bufferViews" : [
        {
            "buffer" : 0,
            "byteLength" : 3516,
            "byteOffset" : 0
        },
        {
            "buffer" : 0,
            "byteLength" : 3516,
            "byteOffset" : 3516
        },
        {
            "buffer" : 0,
            "byteLength" : 2344,
            "byteOffset" : 7032
        },
        {
            "buffer" : 0,
            "byteLength" : 936,
            "byteOffset" : 9376
        }
    ],
    "buffers" : [
        {
            "byteLength" : 10312,
            "uri" : "data:application/octet-stream;base64,"
        }
    ]
}
